<svg xmlns="http://www.w3.org/2000/svg" id="pencil" x="0" y="0" version="1.1" viewBox="0 0 64 65" xml:space="preserve"><path fill="#fff" d="M41.3 60.1c-.2.1.1.2 0 0zM50.5 49.4L57 23.6c1-4.1-1.5-8.3-5.6-9.4-4.1-1-8.3 1.5-9.4 5.6l-6.5 25.9h.1c-.1.1-.2.3-.1.4L41.3 60l2.6-3.1 6.6-7.5z"></path><path fill="#cf481f" d="M53.5 50.3l-15-3.8 7-28.1c.7-2.9 3.7-4.7 6.6-4l1 .2c4.8 1.2 7.7 6.1 6.5 10.9l-6.1 24.8z"></path><path fill="#f16723" d="M52.6 14.3c-3.9-.4-7.6 2-8.5 5.7l-6.5 25.9 13.3 3.3 6.5-25.9c.9-3.7-1.2-7.5-4.8-9z"></path><path fill="#ef5224" d="M56.6 26.5l.8-3.2c.9-3.8-1.2-7.6-4.8-9.1-3.9-.4-7.6 2-8.5 5.7l-.8 3.2 13.3 3.4z"></path><path fill="#ffe4b8" d="M53.3 50l-15.7-3.9L41 56.2l.8 4c.1.2-.2.2 0 0l11.7-9.5c.1-.2.1-.6-.2-.7z"></path><path fill="#f16723" d="M39.4 55.9l1.8 4.2c.1.2.4.3.6.1l3.5-2.9-5.9-1.4z"></path><path fill="#e7d0a8" d="M50.9 49.4l-6.5 7.7 1.2.3 7.3-6.3.3-1.1z"></path><path fill="none" stroke="#231f20" stroke-linecap="round" stroke-miterlimit="10" stroke-width="1.5" d="M55.5 41.9l4.1-16.4c1.2-5-1.8-10-6.7-11.2C48 13 42.9 16 41.7 21l-1.3 5.2"></path><path fill="none" stroke="#fff" stroke-linecap="round" stroke-miterlimit="10" stroke-width="1.5" d="M49.5 17.1c-1.6-.4-3.1.6-3.5 2.1"></path><path fill="none" stroke="#231f20" stroke-linecap="round" stroke-miterlimit="10" stroke-width="1.5" d="M38.9 31.9l-3.4 13.4c-.2.8-.1 1.6.2 2.3l4.9 11.9c.3.7 1.1.9 1.7.4l10-8.2c.6-.5 1.1-1.2 1.3-2l1.6-6.4M40 27.8l-.7 2.6M53.5 49.9l-15.9-4M41.6 22.9l15.6 3.9"></path><path fill="none" stroke="#fff" stroke-linecap="round" stroke-miterlimit="10" stroke-width="1.5" d="M45.6 20.7l-.2.6M40.7 40l-.9 3.8"></path><g><path fill="#fff" d="M23 60.2c-.1.2.1.1 0 0zM26 46.3l-6.6-25.7C18.3 16.5 14.1 14 10 15c-4.1 1.1-6.6 5.3-5.6 9.4L11 50.3h.1c0 .1 0 .3.1.4L23 60.2l.8-4 2.2-9.9z"></path><path fill="#d99816" d="M29.1 45.7l-15 3.8L7 21.8c-.8-3.1 1.1-6.2 4.2-7l1.3-.3c4.5-1.1 9 1.5 10.1 6l6.5 25.2z"></path><path fill="#fbd108" d="M11.1 14.5c-3.6 1.5-5.7 5.4-4.8 9.1L13 49.4 26.3 46l-6.6-25.8c-1-3.8-4.7-6.1-8.6-5.7z"></path><path fill="#f9ae19" d="M20.4 23.4l-.8-3.2c-1-3.7-4.6-6.1-8.5-5.7-3.6 1.5-5.7 5.4-4.8 9.1l.8 3.2 13.3-3.4z"></path><path fill="#ffe4b8" d="M28.7 45.6l-15.7 4 7.8 7.3 2.6 3.1c.2.2-.1.2 0 0l5.7-13.9c.2-.2-.1-.5-.4-.5z"></path><path fill="#fbd108" d="M19.3 57.3l3.5 2.9c.2.2.5.1.6-.1l1.7-4.2-5.8 1.4z"></path><path fill="#e7d0a8" d="M26.3 46.2l-2 9.9 1.2-.3 3.4-9.1-.2-1.1z"></path><path fill="none" stroke="#231f20" stroke-linecap="round" stroke-miterlimit="10" stroke-width="1.5" d="M26.8 37.4L22.6 21c-1.3-5-6.3-7.9-11.3-6.7-5 1.3-7.9 6.3-6.7 11.3L6 30.8"></path><path fill="none" stroke="#fff" stroke-linecap="round" stroke-miterlimit="10" stroke-width="1.5" d="M9.7 18.5c-1.6.4-2.5 2-2.1 3.5"></path><path fill="none" stroke="#231f20" stroke-linecap="round" stroke-miterlimit="10" stroke-width="1.5" d="M7.5 36.5L11 49.9c.2.8.6 1.5 1.3 2l10 8.1c.6.5 1.4.2 1.7-.4l4.9-12c.3-.7.4-1.6.2-2.3L27.3 39M6.4 32.4l.7 2.6M28.9 45.4l-15.9 4M5.5 27.3l15.6-4"></path><path fill="none" stroke="#fff" stroke-linecap="round" stroke-miterlimit="10" stroke-width="1.5" d="M8 23.5l.1.6M12.9 42.8l1 3.7"></path></g><g><path fill="#fff" d="M32 60.8c-.2.3.2.3 0 0zM39.5 45.9V14.6c0-5-4.1-9.1-9.1-9.1s-9.1 4.1-9.1 9.1v31.5h.1c-.1.1-.1.3 0 .5L32 60.8l2.1-4.3 5.4-10.6z"></path><path fill="#3768a4" d="M43.2 46.1H24.9V11.9c0-3.5 2.9-6.4 6.4-6.4h1.8c5.6 0 10.1 4.5 10.1 10.1v30.5z"></path><path fill="#4d9ad4" d="M31.8 5.1c-4.6.7-8.1 4.5-8.1 9v31.5h16.2V14.1c0-4.5-3.5-8.3-8.1-9z"></path><path fill="#3f77bb" d="M39.9 18v-3.9c0-4.6-3.5-8.3-8.1-9-4.6.7-8.1 4.5-8.1 9V18h16.2z"></path><path fill="#ffe4b8" d="M42.8 45.9H23.7l6.8 10.6 2.1 4.3c.2.2-.2.2 0 0l10.6-14.2c.2-.3 0-.7-.4-.7z"></path><path fill="#3f77bb" d="M28.6 56.5l3.2 4.3c.2.2.5.2.7 0l3.2-4.3h-7.1z"></path><path fill="#e7d0a8" d="M39.9 45.9l-5.2 10.6h1.4l6.6-9.4v-1.2z"></path><path fill="none" stroke="#231f20" stroke-linecap="round" stroke-miterlimit="10" stroke-width="1.5" d="M43.1 35.9v-20c0-6-4.9-10.9-10.9-10.9S21.3 9.9 21.3 15.9v6.4"></path><path fill="none" stroke="#fff" stroke-linecap="round" stroke-miterlimit="10" stroke-width="1.5" d="M29 9.2c-1.9 0-3.4 1.5-3.4 3.4"></path><path fill="none" stroke="#231f20" stroke-linecap="round" stroke-miterlimit="10" stroke-width="1.5" d="M21.2 29.3v16.4c0 .9.3 1.9.9 2.6l9.1 12.2c.5.7 1.5.7 2 0l9.1-12.2c.6-.8.9-1.7.9-2.6v-7.8M21.2 24.2v3.2M43.1 45.6H23.7M21.6 18.1h19.1"></path><path fill="none" stroke="#fff" stroke-linecap="round" stroke-miterlimit="10" stroke-width="1.5" d="M25.6 14.5v.7M25.6 38v4.6"></path></g><path fill="none" stroke="#fbd108" stroke-linecap="round" stroke-linejoin="round" stroke-miterlimit="10" d="M46.4 7.4h1.9M47.4 8.3V6.4"></path><g><path fill="none" stroke="#f16723" stroke-linecap="round" stroke-linejoin="round" stroke-miterlimit="10" d="M3.4 41.9h2M4.4 42.9v-2"></path></g><g><path fill="none" stroke="#4d9ad4" stroke-linecap="round" stroke-linejoin="round" stroke-miterlimit="10" d="M54.8 55.1h1.9M55.8 56.1v-2"></path></g><circle cx="59.6" cy="37.5" r="1" fill="none" stroke="#f16723" stroke-linecap="round" stroke-linejoin="round" stroke-miterlimit="10"></circle><circle cx="59" cy="41.6" r=".3" fill="#231f20"></circle><circle cx="51.1" cy="7.4" r=".3" fill="#231f20"></circle><circle cx="15.1" cy="5.9" r=".3" fill="#231f20"></circle><circle cx="6.1" cy="47.4" r=".3" fill="#231f20"></circle><circle cx="12.8" cy="5.8" r=".4" fill="#231f20"></circle><circle cx="16.8" cy="9.3" r="1.2" fill="none" stroke="#fbd108" stroke-linecap="round" stroke-linejoin="round" stroke-miterlimit="10"></circle><circle cx="9.7" cy="55.4" r=".7" fill="none" stroke="#4d9ad4" stroke-linecap="round" stroke-linejoin="round" stroke-miterlimit="10"></circle></svg>